<svg width="1182" height="400" viewBox="0 0 1182 400" fill="none" xmlns="http://www.w3.org/2000/svg">
<path d="M108.293 277.4C90.9596 277.4 77.5596 271.4 68.093 259.4C58.6263 247.267 53.893 229.333 53.893 205.6C53.893 182 58.6263 164 68.093 151.6C77.5596 139.2 90.9596 133 108.293 133C119.493 133 128.893 135.667 136.493 141C144.226 146.333 150.226 153.6 154.493 162.8L144.693 168.6C141.626 161 136.96 155 130.693 150.6C124.56 146.067 117.093 143.8 108.293 143.8C95.2263 143.8 85.0263 148.467 77.693 157.8C70.3596 167.133 66.693 180.467 66.693 197.8V213.6C66.693 230.8 70.3596 243.933 77.693 253C85.0263 262.067 95.2263 266.6 108.293 266.6C117.626 266.6 125.426 264.267 131.693 259.6C137.96 254.8 142.626 248.4 145.693 240.4L155.493 246.2C151.36 255.8 145.293 263.4 137.293 269C129.293 274.6 119.626 277.4 108.293 277.4ZM215.73 277.4C208.93 277.4 202.797 276.2 197.33 273.8C191.864 271.4 187.197 267.933 183.33 263.4C179.464 258.733 176.464 253.067 174.33 246.4C172.197 239.733 171.13 232.2 171.13 223.8C171.13 215.4 172.197 207.933 174.33 201.4C176.464 194.733 179.464 189.133 183.33 184.6C187.197 179.933 191.864 176.4 197.33 174C202.797 171.467 208.93 170.2 215.73 170.2C222.53 170.2 228.664 171.467 234.13 174C239.597 176.4 244.264 179.933 248.13 184.6C251.997 189.133 254.997 194.733 257.13 201.4C259.264 207.933 260.33 215.4 260.33 223.8C260.33 232.2 259.264 239.733 257.13 246.4C254.997 253.067 251.997 258.733 248.13 263.4C244.264 267.933 239.597 271.4 234.13 273.8C228.664 276.2 222.53 277.4 215.73 277.4ZM215.73 267.2C225.73 267.2 233.597 264.067 239.33 257.8C245.197 251.533 248.13 242.333 248.13 230.2V217.4C248.13 205.4 245.197 196.267 239.33 190C233.597 183.6 225.73 180.4 215.73 180.4C205.73 180.4 197.797 183.533 191.93 189.8C186.197 196.067 183.33 205.267 183.33 217.4V230.2C183.33 242.2 186.197 251.4 191.93 257.8C197.797 264.067 205.73 267.2 215.73 267.2ZM285.291 275V172.6H296.691V188.8H297.291C298.358 186.267 299.691 183.933 301.291 181.8C302.891 179.533 304.825 177.533 307.091 175.8C309.358 174.067 312.025 172.733 315.091 171.8C318.291 170.733 322.025 170.2 326.291 170.2C333.625 170.2 340.091 171.933 345.691 175.4C351.291 178.867 355.358 184.333 357.891 191.8H358.491C360.358 185.8 363.891 180.733 369.091 176.6C374.425 172.333 381.625 170.2 390.691 170.2C401.625 170.2 410.025 173.6 415.891 180.4C421.758 187.067 424.691 196.667 424.691 209.2V275H413.291V211.2C413.291 190.667 404.691 180.4 387.491 180.4C383.891 180.4 380.491 180.867 377.291 181.8C374.091 182.733 371.225 184.2 368.691 186.2C366.291 188.067 364.358 190.467 362.891 193.4C361.425 196.2 360.691 199.467 360.691 203.2V275H349.291V211.2C349.291 190.667 340.758 180.4 323.691 180.4C320.225 180.4 316.825 180.867 313.491 181.8C310.291 182.733 307.425 184.133 304.891 186C302.358 187.867 300.358 190.267 298.891 193.2C297.425 196 296.691 199.267 296.691 203V275H285.291ZM456.487 275V172.6H467.887V188.8H468.487C469.553 186.267 470.887 183.933 472.487 181.8C474.087 179.533 476.02 177.533 478.287 175.8C480.553 174.067 483.22 172.733 486.287 171.8C489.487 170.733 493.22 170.2 497.487 170.2C504.82 170.2 511.287 171.933 516.887 175.4C522.487 178.867 526.553 184.333 529.087 191.8H529.687C531.553 185.8 535.087 180.733 540.287 176.6C545.62 172.333 552.82 170.2 561.887 170.2C572.82 170.2 581.22 173.6 587.087 180.4C592.953 187.067 595.887 196.667 595.887 209.2V275H584.487V211.2C584.487 190.667 575.887 180.4 558.687 180.4C555.087 180.4 551.687 180.867 548.487 181.8C545.287 182.733 542.42 184.2 539.887 186.2C537.487 188.067 535.553 190.467 534.087 193.4C532.62 196.2 531.887 199.467 531.887 203.2V275H520.487V211.2C520.487 190.667 511.953 180.4 494.887 180.4C491.42 180.4 488.02 180.867 484.687 181.8C481.487 182.733 478.62 184.133 476.087 186C473.553 187.867 471.553 190.267 470.087 193.2C468.62 196 467.887 199.267 467.887 203V275H456.487ZM633.282 144.8C630.615 144.8 628.615 144.133 627.282 142.8C626.082 141.467 625.482 139.733 625.482 137.6V135.6C625.482 133.467 626.082 131.733 627.282 130.4C628.615 129.067 630.615 128.4 633.282 128.4C635.949 128.4 637.882 129.067 639.082 130.4C640.415 131.733 641.082 133.467 641.082 135.6V137.6C641.082 139.733 640.415 141.467 639.082 142.8C637.882 144.133 635.949 144.8 633.282 144.8ZM627.682 172.6H639.082V275H627.682V172.6ZM689.915 275C685.782 275 682.648 273.867 680.515 271.6C678.382 269.333 677.315 266.267 677.315 262.4V182.6H659.515V172.6H671.115C673.915 172.6 675.782 172.067 676.715 171C677.782 169.8 678.315 167.733 678.315 164.8V144H688.715V172.6H711.915V182.6H688.715V265H710.315V275H689.915Z" fill="#15130F"/>
<rect x="925.761" y="53.7953" width="194.24" height="251.369" rx="6" transform="rotate(9.06206 925.761 53.7953)" fill="#2B261F"/>
<path d="M974.254 261.254L952.921 123.557L981.816 128.164L991.307 194.132L995.074 236.868L995.637 236.958L1012.13 197.453L1041.67 137.708L1069.63 142.166L1006.15 266.34L974.254 261.254Z" fill="#FBF9F5"/>
<rect x="721.236" y="107.461" width="194.254" height="251.387" rx="6" transform="rotate(-16.5402 721.236 107.461)" fill="#15130F"/>
<path d="M877.123 268.072C868.502 270.633 860.334 271.605 852.62 270.989C844.869 270.251 837.772 267.933 831.328 264.032C824.848 260.011 819.083 254.389 814.032 247.169C808.944 239.826 804.796 230.752 801.587 219.945C798.413 209.26 796.936 199.392 797.156 190.342C797.339 181.17 799.029 173.07 802.228 166.042C805.39 158.893 809.999 152.833 816.055 147.864C822.111 142.894 829.449 139.129 838.07 136.569C849.848 133.071 860.284 132.615 869.376 135.2C878.432 137.664 886.8 143.371 894.479 152.322L874.297 171.793C871.01 166.955 867.077 163.499 862.497 161.423C858.002 159.191 852.294 159.102 845.372 161.157C837.237 163.573 831.473 168.192 828.081 175.013C824.775 181.677 824.618 190.048 827.611 200.126L833.669 220.526C836.662 230.604 841.381 237.593 847.824 241.494C854.353 245.236 861.686 245.9 869.821 243.484C876.621 241.464 881.483 238.038 884.409 233.206C887.419 228.215 889.121 222.821 889.513 217.023L915.993 223.43C914.142 234.55 910.124 243.935 903.939 251.586C897.84 259.079 888.902 264.575 877.123 268.072Z" fill="#FBF9F5"/>
</svg>
