<svg width="400" height="400" viewBox="0 0 400 400" fill="none" xmlns="http://www.w3.org/2000/svg">
<rect width="400" height="400" fill="#060A12"/>
<rect x="206.255" y="55.7386" width="194.24" height="251.369" rx="6" transform="rotate(9.06206 206.255 55.7386)" fill="#A1A6B1"/>
<path d="M254.748 263.197L233.415 125.5L262.31 130.107L271.801 196.075L275.568 238.811L276.131 238.901L292.628 199.396L322.164 139.652L350.121 144.109L286.645 268.283L254.748 263.197Z" fill="#060A12"/>
<rect x="1.73045" y="109.405" width="194.254" height="251.387" rx="6" transform="rotate(-16.5402 1.73045 109.405)" fill="#D0D3D8"/>
<path d="M157.617 270.016C148.996 272.576 140.828 273.548 133.114 272.932C125.363 272.195 118.266 269.876 111.822 265.976C105.342 261.954 99.577 256.333 94.5256 249.112C89.4383 241.77 85.2899 232.695 82.0806 221.888C78.9073 211.203 77.4303 201.335 77.6495 192.285C77.8328 183.113 79.5235 175.013 82.7217 167.985C85.8839 160.836 90.4929 154.776 96.5487 149.807C102.605 144.837 109.943 141.072 118.564 138.512C130.343 135.014 140.778 134.558 149.87 137.143C158.926 139.607 167.294 145.314 174.973 154.265L154.791 173.736C151.504 168.898 147.571 165.442 142.991 163.367C138.496 161.134 132.788 161.045 125.866 163.101C117.731 165.517 111.967 170.135 108.575 176.956C105.269 183.62 105.112 191.991 108.105 202.069L114.163 222.469C117.156 232.547 121.875 239.537 128.318 243.437C134.847 247.18 142.18 247.843 150.315 245.427C157.115 243.408 161.977 239.982 164.903 235.149C167.913 230.159 169.615 224.764 170.007 218.966L196.487 225.373C194.636 236.493 190.618 245.879 184.434 253.529C178.334 261.022 169.396 266.518 157.617 270.016Z" fill="#060A12"/>
</svg>
